<?xml version="1.0" standalone="no"?>
<!DOCTYPE svg PUBLIC "-//W3C//DTD SVG 20010904//EN"
 "http://www.w3.org/TR/2001/REC-SVG-20010904/DTD/svg10.dtd">
<svg version="1.0" xmlns="http://www.w3.org/2000/svg"
 width="1366.000000pt" height="863.000000pt" viewBox="0 0 1366.000000 863.000000"
 preserveAspectRatio="xMidYMid meet">

<g transform="translate(0.000000,863.000000) scale(0.100000,-0.100000)"
fill="#000000" stroke="none">
<path d="M12200 3862 c0 -10 -77 -52 -96 -52 -8 0 -30 -15 -48 -32 -18 -18
-46 -45 -63 -59 -19 -17 -37 -48 -48 -83 -10 -31 -22 -59 -26 -62 -5 -3 -9
-19 -9 -35 0 -32 -50 -94 -58 -71 -4 14 -82 16 -82 2 0 -5 -13 -10 -30 -10
-16 0 -30 -4 -30 -10 0 -5 -7 -10 -16 -10 -9 0 -30 -15 -47 -32 -19 -21 -32
-28 -34 -20 -3 6 -18 12 -34 12 -16 0 -29 5 -29 10 0 6 -9 10 -20 10 -17 0
-20 7 -20 40 0 22 -4 40 -10 40 -5 0 -10 8 -10 18 0 47 -30 80 -106 116 -71
34 -82 36 -175 36 -94 0 -104 -2 -176 -36 -79 -38 -123 -73 -123 -97 0 -20
-25 -29 -90 -34 -30 -3 -56 -9 -58 -14 -2 -5 -12 -9 -23 -9 -10 0 -19 -4 -19
-10 0 -5 -17 -10 -38 -10 -26 0 -42 -6 -52 -20 -8 -11 -25 -20 -37 -20 -16 0
-49 -25 -98 -75 -41 -41 -75 -79 -75 -83 0 -5 -12 -22 -27 -39 -36 -39 -53
-68 -53 -93 0 -11 -4 -20 -10 -20 -5 0 -10 -9 -10 -20 0 -13 -7 -20 -20 -20
-11 0 -20 5 -20 10 0 6 -18 10 -40 10 -22 0 -40 5 -40 10 0 6 -16 10 -35 10
-19 0 -35 -4 -35 -10 0 -5 -9 -10 -20 -10 -11 0 -20 -4 -20 -10 0 -5 -12 -10
-26 -10 -29 0 -54 -21 -54 -44 0 -9 -8 -16 -20 -16 -12 0 -20 -7 -20 -16 0
-36 -28 -47 -121 -45 -57 1 -89 -2 -89 -8 0 -6 -16 -11 -36 -11 -19 0 -42 -7
-51 -15 -9 -9 -23 -13 -34 -10 -11 4 -19 2 -19 -4 0 -6 -8 -11 -18 -11 -9 0
-23 -13 -30 -30 -8 -16 -20 -30 -27 -30 -18 0 -115 -95 -115 -112 0 -8 -9 -20
-20 -28 -11 -8 -20 -22 -20 -32 0 -10 -4 -18 -10 -18 -5 0 -10 -23 -10 -51 l0
-51 -42 5 c-24 3 -62 8 -85 11 -23 3 -45 1 -48 -4 -3 -6 -28 -10 -55 -10 -27
0 -52 -4 -55 -10 -3 -5 -16 -9 -28 -8 -30 1 -144 -59 -187 -99 -81 -76 -110
-109 -110 -126 0 -22 -23 -47 -43 -47 -9 0 -18 -6 -20 -12 -4 -10 -6 -10 -6 0
-1 14 -41 17 -41 2 0 -5 -9 -10 -20 -10 -11 0 -20 -4 -20 -10 0 -5 -8 -10 -17
-10 -9 0 -38 -22 -64 -50 -45 -48 -49 -50 -103 -50 -31 0 -56 -4 -56 -10 0 -5
-13 -10 -30 -10 -16 0 -30 -4 -30 -10 0 -5 -9 -10 -20 -10 -11 0 -20 -4 -20
-10 0 -5 -4 -10 -10 -10 -5 0 -19 -9 -31 -21 l-21 -21 -27 33 c-29 34 -36 37
-113 46 -27 3 -48 9 -48 14 0 12 -107 11 -115 -1 -3 -5 -14 -10 -24 -10 -10 0
-31 -7 -47 -15 -42 -21 -124 -100 -124 -119 0 -9 -4 -16 -10 -16 -5 0 -10 -13
-10 -30 0 -16 -4 -30 -10 -30 -5 0 -10 -22 -10 -50 0 -54 -7 -61 -30 -30 -8
11 -22 20 -32 20 -10 0 -18 5 -18 10 0 6 -18 10 -40 10 -22 0 -40 -4 -40 -10
0 -5 -9 -10 -20 -10 -13 0 -20 7 -20 20 0 11 -4 20 -10 20 -5 0 -10 9 -10 20
0 11 -4 20 -10 20 -5 0 -10 9 -10 20 0 11 -4 20 -10 20 -5 0 -10 9 -10 19 0
11 -8 22 -17 25 -10 3 -36 24 -58 46 -22 21 -48 39 -57 40 -10 0 -18 5 -18 10
0 6 -13 10 -30 10 -16 0 -30 5 -30 10 0 6 -50 10 -131 10 -135 0 -159 7 -159
44 0 9 -4 16 -10 16 -5 0 -10 9 -10 20 0 11 -4 20 -10 20 -5 0 -10 13 -10 28
0 16 -8 34 -20 42 -11 8 -20 22 -20 32 0 10 -4 18 -10 18 -5 0 -10 7 -10 15 0
35 -138 135 -185 135 -9 0 -25 9 -37 20 -12 11 -28 20 -35 20 -7 0 -13 5 -13
10 0 6 -18 10 -40 10 -33 0 -40 3 -40 20 0 11 -4 20 -10 20 -5 0 -10 17 -10
38 0 26 -6 42 -20 52 -11 8 -20 22 -20 32 0 10 -4 18 -10 18 -5 0 -10 13 -10
30 0 28 -16 56 -48 84 -7 6 -23 20 -35 31 -30 27 -105 65 -128 65 -10 0 -19 5
-19 10 0 6 -13 10 -30 10 -16 0 -30 5 -30 10 0 6 -27 10 -60 10 -33 0 -60 -4
-60 -10 0 -5 -18 -10 -40 -10 -22 0 -40 -4 -40 -10 0 -5 -11 -10 -24 -10 -14
0 -28 -4 -31 -10 -3 -5 -17 -10 -30 -10 -13 0 -27 -4 -30 -10 -10 -16 -40 -11
-63 10 -12 11 -27 20 -34 20 -8 0 -20 9 -28 20 -8 11 -21 20 -30 20 -9 0 -22
9 -30 20 -8 11 -21 20 -30 20 -9 0 -22 9 -30 20 -10 14 -26 20 -51 20 -21 0
-40 6 -42 13 -4 9 -8 8 -16 -3 -7 -10 -11 -11 -11 -2 0 9 -31 12 -120 12 -73
0 -120 -4 -120 -10 0 -5 -13 -10 -30 -10 -16 0 -30 -4 -30 -10 0 -5 -9 -10
-20 -10 -11 0 -20 -4 -20 -10 0 -5 -9 -10 -20 -10 -11 0 -20 -4 -20 -10 0 -5
-14 -10 -31 -10 -18 0 -39 -8 -48 -17 -9 -10 -26 -24 -39 -31 -20 -11 -25 -10
-47 12 -14 14 -25 30 -25 36 0 15 -87 100 -103 100 -7 0 -19 9 -27 20 -8 11
-22 20 -32 20 -10 0 -18 5 -18 10 0 6 -9 10 -20 10 -11 0 -20 5 -20 10 0 6
-18 10 -39 10 -22 0 -41 5 -43 12 -3 7 -39 12 -110 12 -106 1 -148 -9 -174
-43 -6 -8 -16 -11 -22 -7 -7 4 -12 2 -12 -3 0 -6 -9 -11 -20 -11 -13 0 -20 -7
-20 -20 0 -12 -7 -20 -16 -20 -18 0 -44 -24 -44 -40 0 -7 -13 -25 -30 -40 -16
-15 -30 -35 -30 -44 0 -9 -4 -16 -10 -16 -5 0 -10 -9 -10 -20 0 -11 -4 -20
-10 -20 -5 0 -10 -9 -10 -20 0 -18 -7 -20 -78 -20 -76 0 -130 -15 -157 -45
-15 -16 -46 -68 -52 -87 -3 -10 -9 -18 -14 -18 -5 0 -9 -9 -9 -20 0 -13 -7
-20 -20 -20 -16 0 -20 7 -20 30 0 17 -4 30 -8 30 -5 0 -14 16 -22 35 -8 19
-17 35 -22 35 -4 0 -8 7 -8 15 0 8 -4 15 -10 15 -5 0 -10 5 -10 10 0 15 -87
100 -103 100 -7 0 -19 9 -27 20 -8 11 -22 20 -32 20 -10 0 -18 5 -18 10 0 6
-42 10 -105 10 -63 0 -105 -4 -105 -10 0 -5 -13 -10 -28 -10 -16 0 -34 -8 -42
-20 -8 -11 -23 -20 -35 -20 -27 0 -125 -108 -125 -138 0 -50 -61 -70 -95 -32
-10 11 -24 20 -32 20 -7 0 -13 5 -13 10 0 6 -65 10 -174 10 -106 0 -177 4
-181 10 -8 13 -182 13 -190 0 -3 -5 -26 -10 -51 -10 -24 0 -44 -4 -44 -10 0
-5 -13 -10 -30 -10 -16 0 -30 -4 -30 -10 0 -5 -9 -10 -20 -10 -11 0 -20 -4
-20 -10 0 -5 -9 -10 -20 -10 -11 0 -20 -4 -20 -10 0 -5 -9 -10 -20 -10 -11 0
-20 -4 -20 -10 0 -5 -9 -10 -20 -10 -11 0 -20 -4 -20 -10 0 -5 -9 -10 -20 -10
-11 0 -20 -4 -20 -10 0 -5 -9 -10 -20 -10 -11 0 -20 -4 -20 -10 0 -5 -13 -10
-30 -10 -16 0 -30 -4 -30 -10 0 -5 -7 -10 -15 -10 -8 0 -15 -4 -15 -10 0 -5
-7 -10 -16 -10 -8 0 -33 -18 -54 -40 -44 -45 -50 -48 -50 -20 0 11 -4 20 -10
20 -5 0 -10 9 -10 20 0 11 -4 20 -10 20 -5 0 -10 9 -10 20 0 11 -4 20 -10 20
-5 0 -10 7 -10 16 0 9 -13 29 -30 44 -16 15 -30 31 -30 34 0 14 -131 136 -145
136 -8 0 -15 5 -15 10 0 6 -9 10 -20 10 -11 0 -20 3 -20 8 0 10 -50 32 -72 32
-10 0 -18 5 -18 10 0 13 -187 13 -195 0 -3 -6 -17 -10 -30 -10 -13 0 -27 -5
-30 -10 -3 -6 -15 -10 -26 -10 -10 0 -28 -9 -40 -21 l-21 -21 -68 71 c-38 39
-75 71 -82 71 -8 0 -20 9 -28 20 -8 11 -22 20 -32 20 -10 0 -18 5 -18 10 0 6
-13 10 -30 10 -16 0 -30 5 -30 11 0 8 -18 10 -62 5 -35 -4 -94 -8 -131 -9 -47
-1 -71 -7 -77 -17 -9 -13 -11 -13 -20 0 -9 13 -11 13 -20 0 -9 -13 -11 -13
-20 0 -6 10 -10 11 -10 3 0 -7 -6 -13 -14 -13 -8 0 -17 -6 -20 -12 -5 -10 -7
-10 -12 0 -10 21 -21 14 -83 -48 -33 -33 -67 -60 -76 -60 -8 0 -15 -8 -15 -18
0 -10 -9 -24 -20 -32 -11 -8 -20 -25 -20 -37 0 -13 -4 -23 -10 -23 -5 0 -10
-11 -10 -25 0 -14 -4 -25 -10 -25 -7 0 -10 -472 -10 -1395 l0 -1395 6830 0
6830 0 0 1770 c0 1173 -3 1770 -10 1770 -5 0 -10 7 -10 15 0 8 -4 15 -10 15
-5 0 -10 7 -10 15 0 8 -3 15 -7 15 -5 0 -25 16 -45 35 -20 19 -44 35 -52 35
-9 0 -16 5 -16 10 0 6 -9 10 -20 10 -11 0 -20 5 -20 10 0 6 -9 10 -20 10 -11
0 -20 4 -20 9 0 5 -82 9 -187 9 -145 0 -189 -3 -200 -14 -8 -7 -31 -18 -53
-24 -22 -6 -46 -17 -54 -26 -9 -8 -21 -12 -27 -8 -6 3 -14 2 -18 -3 -3 -5 -28
-23 -56 -41 -27 -17 -56 -36 -63 -42 -16 -14 -42 10 -42 39 0 12 -4 21 -10 21
-5 0 -10 9 -10 20 0 11 -4 20 -10 20 -5 0 -10 7 -10 15 0 22 -126 145 -149
145 -11 0 -23 5 -26 10 -3 6 -17 10 -31 10 -13 0 -24 5 -24 10 0 15 -157 13
-163 -2 -4 -10 -6 -10 -6 0 -1 14 -31 17 -31 2 0 -5 -7 -10 -15 -10 -8 0 -15
5 -15 10 0 6 -4 10 -10 10 -5 0 -10 -4 -10 -8z m-263 -1137 l-22 -23 -23 21
-22 21 22 23 22 23 22 -21 23 -21 -22 -23z m-9397 -133 c0 -57 40 -102 92
-102 10 0 18 -7 18 -15 0 -8 -8 -15 -18 -15 -10 0 -29 -5 -43 -12 -26 -12 -49
-49 -49 -80 0 -34 -17 -18 -40 37 -22 53 -25 55 -62 55 -27 0 -38 4 -38 15 0
10 10 15 30 15 17 0 30 5 30 10 0 6 6 10 13 10 13 0 47 69 47 95 0 8 5 15 10
15 6 0 10 -13 10 -28z m6710 -927 c0 -14 3 -25 8 -25 4 -1 18 -10 32 -21 l24
-21 -32 -28 c-18 -15 -32 -35 -32 -44 0 -9 -4 -16 -10 -16 -5 0 -10 7 -10 16
0 17 -36 54 -52 54 -19 0 -6 26 22 45 18 12 30 29 30 43 0 12 5 22 10 22 6 0
10 -11 10 -25z m-8330 -607 c0 -25 27 -58 47 -58 7 0 13 -4 13 -10 0 -5 -7
-10 -16 -10 -23 0 -44 -25 -44 -54 0 -36 -14 -33 -25 6 -6 17 -19 36 -30 42
-11 6 -22 12 -24 13 -2 1 11 14 28 28 17 15 31 35 31 46 0 10 5 19 10 19 6 0
10 -10 10 -22z m3510 -410 c0 -25 27 -58 47 -58 7 0 13 -4 13 -10 0 -5 -7 -10
-16 -10 -23 0 -44 -25 -44 -54 0 -14 -4 -26 -10 -26 -5 0 -10 12 -10 26 0 29
-21 54 -44 54 -9 0 -16 5 -16 10 0 6 5 10 12 10 20 0 48 32 48 57 0 12 5 23
10 23 6 0 10 -10 10 -22z m8020 -268 c0 -22 5 -40 10 -40 6 0 10 -9 10 -20 0
-13 7 -20 20 -20 11 0 20 -4 20 -10 0 -5 14 -10 30 -10 17 0 30 -4 30 -10 0
-5 -13 -10 -30 -10 -16 0 -30 -4 -30 -10 0 -5 -9 -10 -20 -10 -13 0 -20 -7
-20 -20 0 -11 -4 -20 -10 -20 -5 0 -10 -13 -10 -30 0 -16 -4 -30 -10 -30 -5 0
-10 14 -10 30 0 17 -4 30 -10 30 -5 0 -10 7 -10 16 0 26 -26 44 -64 44 -20 0
-36 5 -36 10 0 6 14 10 30 10 17 0 30 5 30 10 0 6 9 10 20 10 13 0 20 7 20 20
0 11 5 20 10 20 6 0 10 18 10 40 0 22 5 40 10 40 6 0 10 -18 10 -40z m-3140
-203 c0 -5 -7 -15 -15 -24 -12 -12 -19 -13 -30 -3 -31 25 -7 67 26 47 11 -7
19 -16 19 -20z m-7426 -105 c15 -18 15 -20 -3 -37 -18 -16 -22 -16 -36 -2 -18
19 -19 24 -2 42 16 19 21 18 41 -3z"/>
</g>
</svg>
